<?xml version="1.0" encoding="utf-8"?>
<!-- Generator: Adobe Illustrator 26.3.1, SVG Export Plug-In . SVG Version: 6.00 Build 0)  -->
<svg version="1.1" id="图层_1" xmlns="http://www.w3.org/2000/svg" xmlns:xlink="http://www.w3.org/1999/xlink" x="0px" y="0px"
	 viewBox="0 0 1901 1268" style="enable-background:new 0 0 1901 1268;" xml:space="preserve">
<style type="text/css">
	.st0{fill:none;stroke:#FEC803;stroke-width:7.2788;stroke-linecap:round;stroke-linejoin:round;stroke-miterlimit:10;}
	.st1{opacity:0.8;}
	.st2{fill:#FEC803;}
	.st3{fill:#FFFFFF;}
	.st4{font-family:'NanumSquare_acB';}
	.st5{font-size:16.6372px;}
	.st6{letter-spacing:1;}
	.st7{opacity:0.5;}
	.st8{font-family:'NanumSquare_acR';}
	.st9{font-size:12.9978px;}
	.st10{font-family:'SwaggerTTF';}
	.st11{font-size:68.1401px;}
	.st12{letter-spacing:4;}
	.st13{fill:none;stroke:#FEC803;stroke-linecap:round;stroke-miterlimit:10;}
	.st14{fill:none;stroke:#FEC803;stroke-linecap:round;stroke-miterlimit:10;stroke-dasharray:0,5.0869;}
</style>
<image style="overflow:visible;" width="1901" height="1268" xlink:href="header-bg.jpg" >
</image>
<polyline class="st0" points="666.5,543.8 678.5,528.4 666.4,512.7 "/>
<g>
	<line class="st0" x1="863.8" y1="531.7" x2="887.8" y2="531.7"/>
	<line class="st0" x1="875.8" y1="544.7" x2="875.8" y2="520.7"/>
</g>
<path class="st1" d="M629.9,693.8H423c-10.5,0-19-8.5-19-19V402c0-10.5,8.5-19,19-19h207c10.5,0,19,8.5,19,19v272.7
	C648.9,685.3,640.4,693.8,629.9,693.8z"/>
<g>
	<g>
		<g>
			<path class="st2" d="M438.9,585.6h-3.4v5.6h0.7c0.6,0,1.2,0,1.7-0.1s1.1-0.1,1.8-0.2l0.1,1.1c-0.4,0.1-0.7,0.1-1,0.1
				c-0.3,0-0.6,0.1-1,0.1s-0.6,0-0.9,0s-0.6,0-1,0h-1.8v-7.9h4.8V585.6z M440.6,583.5h1.3v11.6h-1.3v-6.4h-2.5v-1.2h2.5V583.5z
				 M444.5,595.7h-1.3v-12.5h1.3V595.7z"/>
			<path class="st2" d="M449.9,584c0.5,0,0.9,0.1,1.3,0.2s0.7,0.4,1,0.7s0.5,0.7,0.7,1.1c0.2,0.5,0.2,1,0.2,1.6v1.4
				c0,0.6-0.1,1.1-0.2,1.6c-0.2,0.5-0.4,0.8-0.7,1.1c-0.3,0.3-0.6,0.5-1,0.7c-0.4,0.2-0.8,0.2-1.3,0.2c-0.5,0-0.9-0.1-1.3-0.2
				c-0.4-0.2-0.7-0.4-1-0.7c-0.3-0.3-0.5-0.7-0.7-1.1c-0.2-0.5-0.2-1-0.2-1.6v-1.4c0-0.6,0.1-1.1,0.2-1.6c0.2-0.5,0.4-0.8,0.7-1.1
				s0.6-0.5,1-0.7S449.4,584,449.9,584z M449.9,591.5c0.2,0,0.5,0,0.7-0.1c0.2-0.1,0.4-0.2,0.6-0.4c0.2-0.2,0.3-0.5,0.4-0.8
				c0.1-0.3,0.2-0.7,0.2-1.2v-1c0-0.5-0.1-0.9-0.2-1.2c-0.1-0.3-0.2-0.6-0.4-0.8c-0.2-0.2-0.4-0.4-0.6-0.4s-0.5-0.1-0.7-0.1
				c-0.2,0-0.5,0-0.7,0.1c-0.2,0.1-0.4,0.2-0.6,0.4c-0.2,0.2-0.3,0.5-0.4,0.8c-0.1,0.3-0.2,0.7-0.2,1.2v1c0,0.5,0.1,0.9,0.2,1.2
				c0.1,0.3,0.2,0.6,0.4,0.8c0.2,0.2,0.4,0.4,0.6,0.4C449.4,591.4,449.7,591.5,449.9,591.5z M455.1,595.7v-12.5h1.3v12.5H455.1z"/>
			<path class="st2" d="M460.9,585.3v2.4h3.9v1.1h-3.9v2.6h1.2c0.8,0,1.6,0,2.3-0.1s1.4-0.1,2-0.2l0.1,1.1c-0.4,0.1-0.7,0.1-1.1,0.1
				c-0.4,0-0.7,0.1-1.1,0.1c-0.4,0-0.8,0-1.2,0c-0.4,0-0.9,0-1.4,0h-2.2v-8.4h5.7v1.1H460.9z M467.7,595.7v-6.8h-2.3v-1.2h2.3v-4.5
				h1.3v12.5H467.7z"/>
			<path class="st2" d="M481.9,589.1h-5.7v-5.3h5.7V589.1z M485.9,591.1v1.1h-3.4c0,0.1,0,0.3,0.1,0.4s0.1,0.2,0.2,0.3
				c0.1,0.1,0.2,0.2,0.3,0.3c0.1,0.1,0.3,0.2,0.5,0.3c0.2,0.1,0.4,0.2,0.6,0.3c0.2,0.1,0.4,0.2,0.6,0.3c0.2,0.1,0.4,0.2,0.7,0.3
				s0.5,0.2,0.8,0.3l-0.5,1.1c-0.5-0.2-1-0.4-1.4-0.5c-0.4-0.2-0.9-0.3-1.2-0.5c-0.7-0.3-1.2-0.7-1.4-1c-0.2,0.3-0.7,0.7-1.4,1
				c-0.4,0.2-0.8,0.3-1.2,0.5s-0.9,0.4-1.4,0.5l-0.5-1.1c0.6-0.2,1.1-0.4,1.6-0.6c0.4-0.2,0.8-0.3,1.2-0.5c0.4-0.2,0.7-0.4,0.9-0.6
				c0.2-0.2,0.2-0.4,0.3-0.7h-3.4v-1.1h3.4v-1.3h1.3v1.3H485.9z M477.5,588h3.1v-3h-3.1V588z M484.4,590v-6.8h1.3v6.8H484.4z"/>
			<path class="st2" d="M496.1,589.4c-0.1,0.2-0.2,0.3-0.3,0.5c-0.1,0.2-0.3,0.3-0.5,0.6c-0.3,0.3-0.6,0.6-1,1s-0.8,0.7-1.2,1.2
				l-0.9-0.9c0.8-0.7,1.5-1.4,2.1-2.1c0.2-0.2,0.4-0.5,0.5-0.6s0.2-0.4,0.3-0.6c0.1-0.2,0.1-0.4,0.2-0.6c0-0.2,0-0.4,0-0.7v-3h1.4v3
				c0,0.3,0,0.5,0.1,0.7c0,0.2,0.1,0.4,0.2,0.6c0.1,0.2,0.2,0.4,0.3,0.6c0.1,0.2,0.3,0.4,0.5,0.6c0.3,0.3,0.6,0.6,0.9,0.9
				s0.7,0.6,1.1,1l-0.9,0.9c-0.5-0.4-0.9-0.8-1.2-1.1c-0.3-0.3-0.6-0.6-0.9-0.9c-0.2-0.2-0.4-0.4-0.5-0.6
				C496.3,589.7,496.2,589.6,496.1,589.4L496.1,589.4z M501.2,595.7v-12.5h1.3v12.5H501.2z"/>
			<path class="st2" d="M506.4,595.7v-3.1h6.8v-0.9h-6.9v-1.1h1.5v-1.3h-3.1v-1.1h11.4v1.1h-3.1v1.3h1.4v3.1h-6.8v0.9h7.2v1.1H506.4
				z M514.5,587.4h-8.1v-3.9h8.1V587.4z M513.2,584.6h-5.5v1.7h5.5V584.6z M509.2,590.6h2.6v-1.3h-2.6V590.6z"/>
			<path class="st2" d="M517.8,592.5v-4.8h3.2v-2.4h-3.2v-1.1h4.5v4.5H519v2.6h0.9c0.6,0,1.2,0,1.7,0s1.1-0.1,1.7-0.2l0.1,1.1
				c-1,0.2-2.3,0.2-4,0.2H517.8z M524.3,583.5h1.3v11.6h-1.3v-6.2h-1.4v-1.2h1.4V583.5z M528,595.7h-1.3v-12.5h1.3V595.7z"/>
			<path class="st2" d="M533.6,584c0.5,0,0.9,0.1,1.3,0.2s0.7,0.4,1,0.7s0.5,0.7,0.7,1.1c0.2,0.5,0.2,1,0.2,1.6v1.4
				c0,0.6-0.1,1.1-0.2,1.6c-0.2,0.5-0.4,0.8-0.7,1.1c-0.3,0.3-0.6,0.5-1,0.7c-0.4,0.2-0.8,0.2-1.3,0.2c-0.5,0-0.9-0.1-1.3-0.2
				c-0.4-0.2-0.7-0.4-1-0.7c-0.3-0.3-0.5-0.7-0.7-1.1c-0.2-0.5-0.2-1-0.2-1.6v-1.4c0-0.6,0.1-1.1,0.2-1.6c0.2-0.5,0.4-0.8,0.7-1.1
				s0.6-0.5,1-0.7S533.1,584,533.6,584z M533.6,591.5c0.2,0,0.5,0,0.7-0.1c0.2-0.1,0.4-0.2,0.6-0.4c0.2-0.2,0.3-0.5,0.4-0.8
				c0.1-0.3,0.2-0.7,0.2-1.2v-1c0-0.5-0.1-0.9-0.2-1.2c-0.1-0.3-0.2-0.6-0.4-0.8c-0.2-0.2-0.4-0.4-0.6-0.4s-0.5-0.1-0.7-0.1
				c-0.2,0-0.5,0-0.7,0.1c-0.2,0.1-0.4,0.2-0.6,0.4c-0.2,0.2-0.3,0.5-0.4,0.8c-0.1,0.3-0.2,0.7-0.2,1.2v1c0,0.5,0.1,0.9,0.2,1.2
				c0.1,0.3,0.2,0.6,0.4,0.8c0.2,0.2,0.4,0.4,0.6,0.4C533.1,591.4,533.3,591.5,533.6,591.5z M538.8,595.7v-12.5h1.3v12.5H538.8z"/>
			<path class="st2" d="M546.1,588.1c0,0.1-0.1,0.3-0.3,0.5c-0.2,0.2-0.4,0.4-0.6,0.6c-0.3,0.3-0.6,0.5-1,0.9
				c-0.4,0.3-0.7,0.6-1.1,0.9l-0.8-0.9c0.4-0.3,0.8-0.7,1.2-1c0.4-0.3,0.7-0.6,0.9-0.9c0.2-0.2,0.3-0.3,0.4-0.5
				c0.1-0.2,0.2-0.3,0.3-0.5c0.1-0.2,0.1-0.3,0.1-0.5c0-0.2,0-0.4,0-0.6v-2.2h1.4v2.1c0,0.2,0,0.4,0,0.6c0,0.2,0,0.3,0.1,0.5
				c0,0.1,0.1,0.3,0.2,0.4s0.2,0.3,0.4,0.4c0.3,0.3,0.7,0.6,1,0.9c0.4,0.3,0.8,0.6,1.2,0.9l-0.8,0.9c-0.4-0.3-0.7-0.5-1-0.8
				c-0.3-0.3-0.6-0.5-1-0.8c-0.2-0.2-0.4-0.3-0.5-0.5C546.2,588.3,546.1,588.2,546.1,588.1L546.1,588.1z M546.2,594.4h6.7v1.2h-8.1
				v-4.1h1.3V594.4z M551.3,592.1v-3.8h-2.4v-1.1h2.4V586h-2.4v-1.1h2.4v-1.7h1.3v8.9H551.3z"/>
			<path class="st2" d="M567,591.4c-0.5,0.1-1.1,0.1-1.6,0.1c-0.5,0-1.1,0.1-1.7,0.1c-0.6,0-1.3,0-2,0c-0.8,0-1.7,0-2.7,0v-1.1
				c0.6,0,1.2,0,1.8,0c0.5,0,1,0,1.5,0v-0.8c-0.7-0.1-1.3-0.3-1.6-0.6c-0.4-0.3-0.5-0.7-0.5-1.1v-0.4c0-0.3,0.1-0.5,0.2-0.7
				c0.1-0.2,0.3-0.4,0.5-0.6s0.5-0.3,0.9-0.4c0.4-0.1,0.8-0.1,1.3-0.1c0.5,0,0.9,0,1.2,0.1c0.4,0.1,0.7,0.2,0.9,0.4
				c0.2,0.2,0.4,0.4,0.5,0.6c0.1,0.2,0.2,0.4,0.2,0.7v0.4c0,0.4-0.2,0.8-0.5,1.1c-0.4,0.3-0.9,0.5-1.6,0.6v0.8c0.6,0,1.1,0,1.6-0.1
				c0.5,0,1.1-0.1,1.6-0.1L567,591.4z M566.4,584.3v1.1h-6.8v-1.1h2.8v-1.2h1.3v1.2H566.4z M562.4,594.4h6.9v1.1h-8.3v-3.2h1.3
				V594.4z M563,586.9c-0.5,0-0.9,0.1-1.2,0.2s-0.4,0.4-0.4,0.6v0.2c0,0.2,0.1,0.4,0.4,0.6c0.2,0.2,0.6,0.2,1.2,0.2
				c0.5,0,0.9-0.1,1.2-0.2c0.2-0.2,0.4-0.4,0.4-0.6v-0.2c0-0.2-0.1-0.4-0.4-0.6S563.5,586.9,563,586.9z M567.7,592.7v-9.5h1.3v4h1.8
				v1.2H569v4.3H567.7z"/>
			<path class="st2" d="M576.5,585.1h-4V584h5.3v2c0,0.5-0.1,1-0.2,1.3s-0.4,0.7-0.8,1.1c-0.4,0.3-0.9,0.7-1.6,1
				c-0.7,0.3-1.6,0.7-2.6,1.2l-0.5-1.1c0.9-0.4,1.7-0.7,2.3-1c0.6-0.3,1-0.6,1.4-0.9s0.5-0.5,0.7-0.8c0.1-0.3,0.2-0.6,0.2-1V585.1z
				 M574.4,593.1c0-0.3,0.1-0.6,0.3-0.9c0.2-0.3,0.4-0.5,0.8-0.8c0.3-0.2,0.7-0.4,1.2-0.5c0.5-0.1,1-0.2,1.6-0.2s1.1,0.1,1.6,0.2
				c0.5,0.1,0.9,0.3,1.2,0.5c0.3,0.2,0.6,0.5,0.8,0.8c0.2,0.3,0.3,0.6,0.3,0.9v0.5c0,0.3-0.1,0.6-0.3,0.9c-0.2,0.3-0.4,0.5-0.8,0.8
				s-0.7,0.4-1.2,0.5c-0.5,0.1-1,0.2-1.6,0.2s-1.1-0.1-1.6-0.2c-0.5-0.1-0.9-0.3-1.2-0.5s-0.6-0.5-0.8-0.8c-0.2-0.3-0.3-0.6-0.3-0.9
				V593.1z M580.8,593.2c0-0.2-0.1-0.3-0.2-0.5s-0.3-0.3-0.5-0.4c-0.2-0.1-0.5-0.2-0.8-0.3c-0.3-0.1-0.7-0.1-1-0.1s-0.7,0-1,0.1
				c-0.3,0.1-0.6,0.2-0.8,0.3c-0.2,0.1-0.4,0.3-0.5,0.4s-0.2,0.3-0.2,0.5v0.4c0,0.2,0.1,0.3,0.2,0.5c0.1,0.2,0.3,0.3,0.5,0.4
				c0.2,0.1,0.5,0.2,0.8,0.3c0.3,0.1,0.7,0.1,1,0.1s0.7,0,1-0.1s0.6-0.2,0.8-0.3c0.2-0.1,0.4-0.3,0.5-0.4c0.1-0.2,0.2-0.3,0.2-0.5
				V593.2z M580.7,590.6v-1.8h-2.4v-1.1h2.4v-1.4h-2.2V585h2.2v-1.8h1.3v7.4H580.7z"/>
			<path class="st2" d="M591.6,589.6c0,0.1-0.1,0.3-0.2,0.4s-0.2,0.3-0.4,0.5c-0.3,0.3-0.6,0.7-0.9,1c-0.3,0.4-0.7,0.7-1,1.1
				l-0.9-0.9c0.4-0.4,0.8-0.8,1.1-1.1c0.4-0.4,0.7-0.7,1-1.1c0.3-0.4,0.5-0.7,0.5-1c0.1-0.3,0.1-0.7,0.1-1.1v-1.8h-2.1v-1.1h5.4v1.1
				h-2v1.8c0,0.4,0.1,0.7,0.2,1.1s0.3,0.7,0.6,1c0.3,0.4,0.6,0.7,0.9,1.1c0.3,0.3,0.7,0.7,1.1,1.1l-0.9,0.9c-0.4-0.4-0.7-0.7-1-1
				c-0.3-0.3-0.6-0.6-0.8-1c-0.1-0.2-0.3-0.3-0.4-0.5C591.7,589.9,591.6,589.7,591.6,589.6L591.6,589.6z M595.5,583.5h1.3v11.6h-1.3
				v-6.6h-1.9v-1.2h1.9V583.5z M599.2,595.7h-1.3v-12.5h1.3V595.7z"/>
			<path class="st2" d="M612.3,588.9v1.1h-11.4v-1.1h4.4v-2.4h1.4v2.4H612.3z M602.4,583.7h8.2v1.6c0,0.1,0,0.3,0,0.6
				c0,0.2,0,0.5-0.1,0.7c0,0.3-0.1,0.5-0.1,0.8c0,0.3-0.1,0.5-0.1,0.8L609,588c0.1-0.5,0.2-1,0.2-1.5c0-0.5,0.1-0.9,0.1-1.2v-0.5
				h-6.9V583.7z M606.6,591c0.5,0,1.1,0.1,1.5,0.2c0.5,0.1,0.9,0.3,1.2,0.5s0.6,0.4,0.8,0.7c0.2,0.3,0.3,0.6,0.3,1v0.5
				c0,0.4-0.1,0.7-0.3,1c-0.2,0.3-0.5,0.5-0.8,0.7c-0.4,0.2-0.8,0.3-1.2,0.4c-0.5,0.1-1,0.2-1.5,0.2s-1.1-0.1-1.5-0.2
				c-0.5-0.1-0.9-0.3-1.2-0.4c-0.4-0.2-0.6-0.4-0.8-0.7c-0.2-0.3-0.3-0.6-0.3-1v-0.5c0-0.4,0.1-0.7,0.3-1c0.2-0.3,0.5-0.5,0.8-0.7
				s0.8-0.3,1.2-0.5C605.6,591,606.1,591,606.6,591z M606.6,594.9c0.4,0,0.7,0,1-0.1c0.3-0.1,0.6-0.2,0.8-0.3
				c0.2-0.1,0.4-0.2,0.5-0.4c0.1-0.2,0.2-0.3,0.2-0.5v-0.3c0-0.2-0.1-0.3-0.2-0.5c-0.1-0.2-0.3-0.3-0.5-0.4
				c-0.2-0.1-0.5-0.2-0.8-0.3c-0.3-0.1-0.6-0.1-1-0.1s-0.7,0-1,0.1s-0.6,0.2-0.8,0.3c-0.2,0.1-0.4,0.2-0.5,0.4
				c-0.1,0.2-0.2,0.3-0.2,0.5v0.3c0,0.2,0.1,0.3,0.2,0.5c0.1,0.2,0.3,0.3,0.5,0.4c0.2,0.1,0.5,0.2,0.8,0.3S606.3,594.9,606.6,594.9z
				"/>
		</g>
	</g>
	<g>
		<g>
			<path class="st2" d="M500.5,545.9c-0.1,0.2-0.3,0.5-0.6,0.9c-0.3,0.4-0.7,0.7-1.1,1c-0.5,0.5-1.1,0.9-1.8,1.4
				c-0.6,0.5-1.3,1-2,1.5l-1.4-1.7c0.8-0.6,1.5-1.1,2.2-1.6c0.7-0.5,1.2-1,1.7-1.4c0.3-0.3,0.5-0.6,0.8-0.9c0.2-0.3,0.4-0.6,0.5-0.9
				c0.1-0.3,0.2-0.6,0.3-1c0.1-0.4,0.1-0.7,0.1-1.2v-1h-4.8v-2.1h11.7v2.1h-4.5v0.9c0,0.4,0,0.7,0,1.1c0,0.3,0.1,0.6,0.2,0.9
				c0.1,0.3,0.2,0.5,0.4,0.7c0.2,0.2,0.4,0.5,0.7,0.7c0.6,0.5,1.2,1,1.8,1.5c0.6,0.5,1.3,1,2.1,1.4l-1.4,1.8
				c-0.6-0.4-1.2-0.9-1.8-1.3c-0.6-0.4-1.1-0.9-1.7-1.4c-0.4-0.3-0.7-0.6-0.9-0.8C500.7,546.3,500.6,546.1,500.5,545.9L500.5,545.9z
				 M498.3,555.5c0-0.6,0.2-1.1,0.5-1.7c0.3-0.5,0.8-1,1.4-1.4c0.6-0.4,1.3-0.7,2.2-0.9c0.9-0.2,1.8-0.3,2.9-0.3
				c1.1,0,2,0.1,2.9,0.3c0.9,0.2,1.6,0.5,2.2,0.9c0.6,0.4,1.1,0.8,1.4,1.4c0.3,0.5,0.5,1.1,0.5,1.7v1c0,0.6-0.2,1.1-0.5,1.7
				c-0.3,0.5-0.8,1-1.4,1.4c-0.6,0.4-1.3,0.7-2.2,0.9s-1.8,0.3-2.9,0.3c-1.1,0-2-0.1-2.9-0.3s-1.6-0.5-2.2-0.9
				c-0.6-0.4-1.1-0.8-1.4-1.4c-0.3-0.5-0.5-1.1-0.5-1.7V555.5z M509.8,555.6c0-0.3-0.1-0.6-0.3-0.9c-0.2-0.3-0.5-0.6-0.9-0.8
				c-0.4-0.2-0.9-0.4-1.4-0.6c-0.6-0.1-1.2-0.2-1.9-0.2c-0.7,0-1.3,0.1-1.9,0.2c-0.6,0.1-1,0.3-1.4,0.6c-0.4,0.2-0.7,0.5-0.9,0.8
				s-0.3,0.6-0.3,0.9v0.7c0,0.3,0.1,0.6,0.3,0.9s0.5,0.6,0.9,0.8c0.4,0.2,0.9,0.4,1.4,0.6s1.2,0.2,1.9,0.2c0.7,0,1.3-0.1,1.9-0.2
				c0.6-0.1,1-0.3,1.4-0.6c0.4-0.2,0.7-0.5,0.9-0.8c0.2-0.3,0.3-0.6,0.3-0.9V555.6z M509.6,550.9v-5.7h-4.2v-2.1h4.2v-5.5h2.4v13.3
				H509.6z"/>
			<path class="st2" d="M540.5,560.1v-7.2h-9.1v-2.1h20.7v2.1h-9.1v7.2H540.5z M549.1,548.4h-14.8v-10h2.4v3.1h10v-3.1h2.4V548.4z
				 M536.7,546.3h10v-2.8h-10V546.3z"/>
		</g>
	</g>
	<g>
		<g>
			<g>
				<polygon class="st2" points="494.3,509.8 494.3,508.4 492.6,508.4 492.6,483.6 493.2,483.1 493.2,482.3 492.5,482.3 
					492.5,480.5 494,479 494,477.7 487.1,477.7 485.7,477.7 478.9,477.7 478.9,479 480.3,480.5 480.3,482.3 479.6,482.3 
					479.6,483.1 480.3,483.6 480.3,508.4 478.6,508.4 478.6,509.8 479.5,509.8 478.4,510.8 478.4,512.2 485.7,512.2 487.1,512.2 
					494.4,512.2 494.4,510.8 493.4,509.8 				"/>
				<polygon class="st2" points="518.9,509.8 518.9,508.4 517.3,508.4 517.3,483.6 517.9,483.1 517.9,482.3 517.2,482.3 
					517.2,480.5 518.6,479 518.6,477.7 511.8,477.7 510.4,477.7 503.5,477.7 503.5,479 505,480.5 505,482.3 504.3,482.3 
					504.3,483.1 504.9,483.6 504.9,508.4 503.3,508.4 503.3,509.8 504.1,509.8 503.1,510.8 503.1,512.2 510.4,512.2 511.8,512.2 
					519.1,512.2 519.1,510.8 518.1,509.8 				"/>
				<polygon class="st2" points="543.6,509.8 543.6,508.4 541.9,508.4 541.9,483.6 542.6,483.1 542.6,482.3 541.8,482.3 
					541.8,480.5 543.3,479 543.3,477.7 536.4,477.7 535.1,477.7 528.2,477.7 528.2,479 529.7,480.5 529.7,482.3 528.9,482.3 
					528.9,483.1 529.6,483.6 529.6,508.4 527.9,508.4 527.9,509.8 528.8,509.8 527.8,510.8 527.8,512.2 535.1,512.2 536.4,512.2 
					543.7,512.2 543.7,510.8 542.7,509.8 				"/>
				<polygon class="st2" points="567.4,509.8 568.3,509.8 568.3,508.4 566.6,508.4 566.6,483.6 567.2,483.1 567.2,482.3 
					566.5,482.3 566.5,480.5 568,479 568,477.7 561.1,477.7 559.7,477.7 552.9,477.7 552.9,479 554.3,480.5 554.3,482.3 
					553.6,482.3 553.6,483.1 554.3,483.6 554.3,508.4 552.6,508.4 552.6,509.8 553.5,509.8 552.4,510.8 552.4,512.2 559.7,512.2 
					561.1,512.2 568.4,512.2 568.4,510.8 				"/>
			</g>
		</g>
		<polygon class="st2" points="523.4,453.5 474,465.6 474,475.1 523.4,475.1 572.8,475.1 572.8,465.6 		"/>
		<polygon class="st2" points="576.3,524.5 576.3,518.8 572,518.8 572,514.9 474.8,514.9 474.8,518.8 470.6,518.8 470.6,524.5 
			465.8,524.5 465.8,527.8 581.1,527.8 581.1,524.5 		"/>
	</g>
	<g>
		<g>
			<rect x="441.5" y="546.6" class="st2" width="33.8" height="2.1"/>
		</g>
		<g>
			<rect x="571.5" y="546.6" class="st2" width="33.8" height="2.1"/>
		</g>
	</g>
</g>
<path class="st1" d="M830.2,693.8H718c-10.5,0-19-8.5-19-19V402c0-10.5,8.5-19,19-19h112.2c10.5,0,19,8.5,19,19v272.7
	C849.2,685.3,840.7,693.8,830.2,693.8z"/>
<g>
	<text transform="matrix(1 0 0 1 715.483 520.3817)"><tspan x="0" y="0" class="st3 st4 st5 st6">도시재난 및 대피</tspan><tspan x="2.6" y="20" class="st3 st4 st5 st6">시뮬레이터 개발</tspan></text>
</g>
<path class="st1" d="M1208.6,450.3H909V402c0-10.5,8.5-19,19-19h261.6c10.5,0,19,8.5,19,19V450.3z"/>
<path class="st7" d="M1189.6,693.8H928c-10.5,0-19-8.5-19-19V453.5h299.6v221.3C1208.6,685.3,1200.1,693.8,1189.6,693.8z"/>
<path class="st1" d="M1486.8,450.3h-256.5V402c0-10.5,8.5-19,19-19h218.5c10.5,0,19,8.5,19,19V450.3z"/>
<path class="st7" d="M1467.8,693.8h-218.5c-10.5,0-19-8.5-19-19V453.5h256.5v221.3C1486.8,685.3,1478.3,693.8,1467.8,693.8z"/>
<g>
	<text transform="matrix(1 0 0 1 1040.1696 560.4686)"><tspan x="0" y="0" class="st3 st4 st5 st6">데이터</tspan><tspan x="-44.4" y="15.6" class="st2 st8 st9">관련 GIS 데이터 등 공개</tspan></text>
</g>
<g>
	<text transform="matrix(1 0 0 1 1019.5065 609.9891)"><tspan x="0" y="0" class="st3 st4 st5 st6">교육 및 연구</tspan><tspan x="-81" y="15.6" class="st2 st8 st9">애플리케이션을 활용한 교육 및 연구사례 공개</tspan></text>
</g>
<g>
	<text transform="matrix(1 0 0 1 931.963 663.9818)" class="st3 st4 st5 st6">관련 특허 실적 및 연구실 연락처 공개</text>
</g>
<text transform="matrix(1 0 0 1 1017.0607 491.2965)"><tspan x="0" y="0" class="st3 st4 st5 st6">어플리케이션</tspan><tspan x="-54.4" y="15.6" class="st2 st8 st9">애플리케이션 사용 지원, 매뉴얼 제공</tspan><tspan x="-54.4" y="31.2" class="st2 st8 st9">개발 소스 코드 및 다큐멘테이션 공개</tspan></text>
<g>
	<text transform="matrix(1 0 0 1 971.3534 413.501)"><tspan x="0" y="0" class="st3 st4 st5 st6">개발/교육/연구성과 공개</tspan><tspan x="13.7" y="20" class="st3 st4 st5 st6">및 축적  (Git-hub)</tspan></text>
</g>
<g>
	<text transform="matrix(1 0 0 1 1283.9766 422.1077)" class="st3 st4 st5 st6">활용 커뮤니티 활성화</text>
</g>
<g>
	<text transform="matrix(1 0 0 1 1337.8967 497.2867)" class="st3 st4 st5 st6">연  구</text>
</g>
<g>
	<text transform="matrix(1 0 0 1 1337.8967 572.5424)" class="st3 st4 st5 st6">교  육</text>
</g>
<g>
	<text transform="matrix(1 0 0 1 1318.3066 647.7988)" class="st3 st4 st5 st6">개인 / 지역</text>
</g>
<g>
	<text transform="matrix(1 0 0 1 616.0396 310.0092)" class="st3 st10 st11 st12">about disaster project</text>
</g>
<g>
	<g>
		<line class="st13" x1="1291.7" y1="530.4" x2="1291.7" y2="530.4"/>
		<line class="st14" x1="1296.8" y1="530.4" x2="1416.4" y2="530.4"/>
		<line class="st13" x1="1418.9" y1="530.4" x2="1418.9" y2="530.4"/>
	</g>
</g>
<g>
	<g>
		<line class="st13" x1="1291.7" y1="605.6" x2="1291.7" y2="605.6"/>
		<line class="st14" x1="1296.8" y1="605.6" x2="1416.4" y2="605.6"/>
		<line class="st13" x1="1418.9" y1="605.6" x2="1418.9" y2="605.6"/>
	</g>
</g>
</svg>
