<?xml version="1.0" encoding="utf-8"?>
<!-- Generator: Adobe Illustrator 26.3.1, SVG Export Plug-In . SVG Version: 6.00 Build 0)  -->
<svg version="1.1" id="图层_1" xmlns="http://www.w3.org/2000/svg" xmlns:xlink="http://www.w3.org/1999/xlink" x="0px" y="0px"
	 viewBox="0 0 235 235" style="enable-background:new 0 0 235 235;" xml:space="preserve">
<style type="text/css">
	.st0{fill:#FEC803;}
</style>
<g>
	<path class="st0" d="M218.1,14.2c-50.5,0-101,0-151.5,0c-7.2,0-11.7,4.5-11.7,11.7c0,3.9-0.1,7.2,0,10.5c0,0.2,0,0.3,0,0.4
		c-0.1,0-0.2,0-0.5-0.1C46,35.3,37.7,38.5,32.3,45c-5.4,6.6-6.9,15.3-4.1,23.4c0.9,2.4,2.2,4.5,3.6,6.5l-0.1,0
		C18.6,79.1,10,87.9,6.2,101.2c-0.1,0.5-0.2,1-0.3,1.4c-0.1,0.8-0.2,1.5-0.6,2L5,105v38.4l0.6,0.3c0.1,0,0.1,0,0.2,0.5
		c0,0.2,0.1,0.5,0.1,0.7c2.6,8.6,8.3,14.2,16.7,16.6c1.1,0.3,1.2,0.5,1.2,1.7c-0.1,11.7-0.1,23.7,0,36.8c0,6.8,3.2,11.9,9.2,14.8
		c2.4,1.1,4.7,1.7,7,1.7c3.5,0,6.9-1.3,10.1-3.9c0.4-0.3,0.6-0.3,0.6-0.3c0,0,0.2,0.1,0.6,0.4c2.6,2.2,5.7,3.4,9.1,3.6
		c4.6,0.2,8.9-1.3,12.1-4.3c3.2-3.1,5-7.3,5.1-12c0-26.3,0-47.5,0-66.8c0-0.9,0.1-1.1,0.2-1.2c0,0,0.2-0.2,1.2-0.2
		c11.9,0.1,24.1,0.1,35.8,0l10.1,0l0.5,0c0.6,0,1.2,0,1.8-0.1c2.6-0.4,4.5-2.5,4.6-5.1c0.1-2.5-1.6-4.8-4-5.3
		c-0.8-0.2-1.6-0.2-2.4-0.2l-0.4,0l-8.6,0c-12.3,0-25,0-37.6,0c-0.9,0-1.1-0.1-1.1-0.2c0,0-0.1-0.2-0.1-1.1c0.1-4.4,0.1-8.9,0-13.1
		c0-0.9,0.1-1.1,0.1-1.1s0.2-0.2,1.1-0.2c10.4,0.1,21.4,0.1,34.6,0c5.5,0,10.2-2.1,13.3-5.9c3.1-3.8,4.2-8.8,3.1-14.1
		c-0.1-0.6-0.1-0.6,0.6-1c3-1.3,5.9-2.7,8.8-4.1l8-3.8c4.1-1.9,8.2-3.8,12.2-5.7c3.2-1.5,4.5-4.4,3.2-7.3c-1.3-2.8-4.4-3.8-7.6-2.5
		c-0.2,0.1-0.5,0.2-0.7,0.3c-0.2,0.1-0.3,0.2-0.5,0.2l-7.4,3.5c-7.4,3.5-14.8,6.9-22.3,10.4c-0.8,0.4-0.9,0.4-1.4,0.1
		c-2.6-1.8-5.7-2.6-9.7-2.6c-13.5,0-27.3,0-40.6,0l-1.4,0c0,0,0,0,0,0c-0.2,0-0.4,0-0.6,0c0,0,0,0,0,0c6.6-11,5.1-22.6-4.3-31.3
		c-0.5-0.4-0.6-0.8-0.6-1.5l0-2.4c0-3.8,0-7.8,0-11.7c0-0.9,0.1-1.2,0.2-1.3c0.1-0.1,0.5-0.3,1.4-0.3c0,0,0,0,0,0
		c47.9,0,98.6,0.1,150.4,0c0,0,0,0,0,0c0.7,0,1.2,0.1,1.4,0.3c0.1,0.1,0.3,0.4,0.3,1.3c-0.1,32.2-0.1,63.5,0,93.2
		c0,0.9-0.2,1.3-0.3,1.4c-0.2,0.2-0.7,0.3-1.4,0.3c0,0,0,0,0,0c-13-0.1-26.2,0-39,0l-11.1,0l-0.5,0c-0.6,0-1.2,0-1.8,0.1
		c-2.8,0.3-4.7,2.5-4.7,5.2c0,2.8,1.8,5,4.6,5.4c0.5,0.1,1,0.1,1.5,0.1l0.4,0l11.2,0c13.4,0,26.8,0,40.2,0c7.1,0,11.7-4.6,11.7-11.7
		c0-31.4,0-62.8,0-94.3C230,18.7,225.4,14.2,218.1,14.2z M108,87.3c-0.1-1.2-0.3-2.7,0.1-3.1c0.5-0.5,1.9-0.4,3.2-0.2
		c0.7,0.1,1.4,0.2,2.1,0.2c2,0,3.6,0.6,4.7,1.7c1,1,1.5,2.3,1.5,3.8c0,3.2-2.4,5.4-6,5.4c-0.6,0-1.3,0.1-1.9,0.1
		c-1.4,0.1-3,0.3-3.6-0.2c-0.5-0.4-0.3-1.7-0.2-2.9c0.1-0.5,0.1-1.1,0.1-1.6l0.1,0v-1C108.2,88.7,108.1,88,108,87.3z M97.4,94
		c0,0.8-0.1,0.9-0.1,0.9c0,0-0.2,0.1-0.9,0.1C90.2,95,84,95,78,95l-4.4,0c-4.7,0-6.6,1.9-6.6,6.6l0,7c0,9,0,18.2,0,27.3
		c0,0.7-0.1,0.9-0.1,0.9c0,0-0.2,0.1-0.9,0.1c-4.9,0-10-0.1-15.2-0.1c-5,0-10.1,0-15.2,0.1c-0.7,0-0.9-0.1-0.9-0.1
		c0,0-0.1-0.2-0.1-0.9c0.1-9,0.1-18.1,0-26.9l0-1c0-2.2-0.9-4.1-2.5-5.2c-1.4-0.9-3.2-1.1-4.8-0.4c-2.2,0.9-3.4,2.8-3.3,5.4
		c0,2.2,0,4.4,0,6.6c0,3.2,0,6.5,0,9.8c0,0.6-0.1,0.7-0.1,0.7c0,0-0.2,0.1-0.7,0.1c-1.8-0.1-3.6-0.1-5.3,0c-0.6,0-1.1,0-1.7,0
		c-0.1,0-0.1,0-0.2,0c0.1-2.4,0-4.9,0-7.3c-0.1-4.5-0.2-9.1,0.8-13.5c2.7-11.7,13-20,25.1-20.2c1.8,0,3.3-0.1,3.6,0.2
		c0.3,0.3,0.3,1.7,0.3,3.5l0,7.3c0,5.7,0,11.4,0,17.1c0,2.4,0.6,4.2,1.8,5.4c0.9,0.9,2.2,1.4,3.6,1.3c3.3-0.1,5.3-2.5,5.3-6.7l0-6.1
		c0-6.9,0-14.1-0.1-21.1c0-0.7,0.1-0.9,0.1-0.9c0,0,0.2-0.1,0.9-0.1c4.8,0.1,9.6,0.1,14.3,0c1.8,0,3.5,0,5.3,0l5.2,0
		c4.8,0,9.7,0,14.6,0c0,0,0.1,0,0.1,0c0.5,0,0.7,0.1,0.7,0c0,0,0.1,0.2,0.1,0.7C97.2,88,97.2,91.1,97.4,94z M45.3,199.1
		c0,1.1,0,2.2-0.4,3.2c-0.9,2.4-3.4,3.9-5.8,3.5c-2.8-0.4-4.6-2.7-4.7-5.6c0-6.2,0-12.3,0-18.5l0-14.1c0-6.2,0-12.7,0-19
		c0-0.7,0.1-0.8,0.1-0.9c0,0,0.1-0.1,0.7-0.1c0,0,0,0,0,0c9.9,0.1,20.3,0.1,30.9,0c0,0,0,0,0,0c0.5,0,0.6,0.1,0.6,0
		c0,0,0.1,0.2,0.1,0.8c0,11,0,22,0,33c0,6.1,0,12.2,0,18.3c0,1.8-0.6,3.4-1.7,4.5c-1,1-2.3,1.5-3.8,1.5c-3.1,0-5.3-2.4-5.3-5.8
		c0-7.7,0-15.5,0-23.2c0-4.8,0-9.6,0-14.4c0-1.2,0-2.2-0.3-3.2c-0.5-2.3-2.6-3.9-5.1-3.9c0,0,0,0,0,0c-2.5,0-4.6,1.7-5.1,4
		c-0.2,1-0.2,1.9-0.2,3c0,9.9,0,19.7,0,29.6L45.3,199.1z M15.7,135.9c0,0,0.1,0,0.1,0l1.7,0c1.9,0,3.9,0,5.9,0c0.1,0,0.2,0,0.3,0
		c0,0.1,0,0.2,0,0.4c0,1.7,0,3.5,0,5.1c0,0.7,0,1.4,0,2c0,0.7,0,1.4,0,2.1c0,1.6,0,3.3,0.1,4.9c0,0.1,0,0.2,0,0.3
		c-0.1,0-0.2-0.1-0.4-0.2C17.8,147.6,15.3,142.9,15.7,135.9z M50.8,73.4c-3.5,0-6.9-1.3-9.4-3.8c-2.5-2.5-3.9-5.8-3.9-9.3
		c0-7.2,5.8-13.1,13-13.2c0,0,0,0,0.1,0c3.5,0,6.9,1.4,9.4,3.8c2.5,2.5,3.9,5.8,3.9,9.3C63.8,67.4,58,73.4,50.8,73.4z"/>
	<path class="st0" d="M146,121.3c-2.9,0.1-5.2,2.4-5.2,5.3c0,2.9,2.3,5.3,5.1,5.4c0,0,0.1,0,0.1,0c1.4,0,2.7-0.6,3.7-1.5
		c1-1,1.6-2.4,1.6-3.8c0-1.4-0.6-2.8-1.6-3.8C148.8,121.8,147.4,121.3,146,121.3z"/>
</g>
</svg>
