<?xml version="1.0" encoding="utf-8"?>
<!-- Generator: Adobe Illustrator 26.1.0, SVG Export Plug-In . SVG Version: 6.00 Build 0)  -->
<svg version="1.1" id="图层_1" xmlns="http://www.w3.org/2000/svg" xmlns:xlink="http://www.w3.org/1999/xlink" x="0px" y="0px"
	 viewBox="0 0 235 64" style="enable-background:new 0 0 235 64;" xml:space="preserve">
<style type="text/css">
	.st0{fill:#FEC803;}
	.st1{fill:#FFFFFF;}
	.st2{fill:none;stroke:#000000;stroke-width:2.3621;stroke-miterlimit:10;}
	.st3{fill:none;stroke:#000000;stroke-width:1.5432;stroke-miterlimit:10;}
	.st4{fill:none;stroke:#000000;stroke-width:1.7566;stroke-miterlimit:10;}
	.st5{fill:none;stroke:#000000;stroke-miterlimit:10;}
</style>
<path class="st0" d="M200.17,61.83H34.83C18.35,61.83,5,48.47,5,32v0C5,15.53,18.35,2.17,34.83,2.17h165.35
	C216.65,2.17,230,15.53,230,32v0C230,48.47,216.65,61.83,200.17,61.83z"/>
<g>
	<path class="st1" d="M41,22.93h3.17l5.46,13.73c0.18,0.59,0.26,1.09,0.26,1.5h0.09c0.06-0.59,0.18-1.11,0.35-1.58l5.28-13.65h3.26
		L51.3,41.16h-2.73L41,22.93z"/>
	<path class="st1" d="M61.34,22.93h2.99v18.22h-2.99V22.93z"/>
	<path class="st1" d="M71.55,38.6h11.27v2.55H68.55V22.84h13.82v2.73H71.55v4.84h10.21v2.64H71.55V38.6z"/>
	<path class="st1" d="M105.97,22.93h3.17l-5.55,18.22h-2.73c-2.41-8.22-3.67-12.53-3.79-12.94c-0.18-0.41-0.26-1.06-0.26-1.94h-0.09
		c0,0.41-0.09,1.06-0.26,1.94c-0.18,0.41-1.53,4.72-4.05,12.94h-2.73L84.4,22.93h3.17c1.99,7.69,3.08,11.88,3.26,12.59
		c0,0.06,0.03,0.15,0.09,0.26c0.12,0.82,0.18,1.41,0.18,1.76h0.09c0-0.65,0.12-1.32,0.35-2.02c0.18-0.47,1.44-4.67,3.79-12.59h2.99
		c2.17,7.92,3.35,12.12,3.52,12.59c0.23,0.7,0.35,1.38,0.35,2.02h0.09c0-0.35,0.06-0.94,0.18-1.76c0.06-0.12,0.09-0.2,0.09-0.26
		C102.71,34.82,103.85,30.62,105.97,22.93z"/>
	<path class="st1" d="M132.47,22.93h3.61v18.22h-2.82V30.33c0-0.88,0.09-2.2,0.26-3.96h-0.09c-0.24,1.06-0.59,2.11-1.06,3.17
		l-4.49,11.62h-2.11l-4.58-11.62c-0.41-1.17-0.73-2.23-0.97-3.17h-0.09c0.12,1.35,0.18,2.67,0.18,3.96v10.83h-2.73V22.93h3.61
		l4.93,12.32c0.06,0.29,0.23,0.79,0.53,1.5c0.06,0.29,0.12,0.5,0.18,0.62c0.29-0.82,0.56-1.53,0.79-2.11L132.47,22.93z"/>
	<path class="st1" d="M148.57,22.58c5.57,0.35,8.57,3.49,8.98,9.42c-0.18,6.1-3.23,9.24-9.16,9.42c-5.75-0.29-8.75-3.4-8.98-9.33
		C139.71,26.04,142.77,22.87,148.57,22.58z M148.31,38.95c3.93-0.18,5.96-2.46,6.07-6.87c-0.29-4.23-2.26-6.51-5.9-6.87
		c-3.76,0.29-5.75,2.58-5.99,6.87C142.68,36.37,144.61,38.66,148.31,38.95z"/>
	<path class="st1" d="M177.63,41.16h-4.05l-6.16-7.75h-3.7v7.75h-2.99V22.84h8.54c4.11,0.12,6.25,1.85,6.43,5.19
		c0,2.99-1.61,4.72-4.84,5.19L177.63,41.16z M163.72,25.57v5.11h5.02c2.64,0,3.93-0.91,3.87-2.73c-0.06-1.53-1.35-2.32-3.87-2.38
		H163.72z"/>
	<path class="st1" d="M182.73,38.6H194v2.55h-14.26V22.84h13.82v2.73h-10.83v4.84h10.21v2.64h-10.21V38.6z"/>
</g>
</svg>
