<?xml version="1.0" encoding="utf-8"?>
<!-- Generator: Adobe Illustrator 26.3.1, SVG Export Plug-In . SVG Version: 6.00 Build 0)  -->
<svg version="1.1" id="图层_1" xmlns="http://www.w3.org/2000/svg" xmlns:xlink="http://www.w3.org/1999/xlink" x="0px" y="0px"
	 viewBox="0 0 235 235" style="enable-background:new 0 0 235 235;" xml:space="preserve">
<style type="text/css">
	.st0{fill:#FEC803;}
</style>
<g>
	<g>
		<path class="st0" d="M136.6,219.3H48.4c-19.8,0-35.9-16.1-35.9-35.9V46.2c0-19.8,16.1-35.9,35.9-35.9h94.1
			c19.8,0,35.9,16.1,35.9,35.9v42.2c0,3.3-2.7,6-6,6s-6-2.7-6-6V46.2c0-13.2-10.7-23.9-23.9-23.9H48.4c-13.2,0-23.9,10.7-23.9,23.9
			v137.1c0,13.2,10.7,23.9,23.9,23.9h88.3c3.3,0,6,2.7,6,6S140,219.3,136.6,219.3z"/>
	</g>
</g>
<g>
	<g>
		<path class="st0" d="M149,63.3H42.5c-3.3,0-6-2.7-6-6s2.7-6,6-6H149c3.3,0,6,2.7,6,6S152.3,63.3,149,63.3z"/>
	</g>
</g>
<g>
	<g>
		<path class="st0" d="M103,103.3H42.5c-3.3,0-6-2.7-6-6s2.7-6,6-6H103c3.3,0,6,2.7,6,6S106.3,103.3,103,103.3z"/>
	</g>
</g>
<g>
	<g>
		<path class="st0" d="M80.5,142.3h-38c-3.3,0-6-2.7-6-6s2.7-6,6-6h38c3.3,0,6,2.7,6,6S83.8,142.3,80.5,142.3z"/>
	</g>
</g>
<g>
	<g>
		<path class="st0" d="M80.5,181.3h-38c-3.3,0-6-2.7-6-6s2.7-6,6-6h38c3.3,0,6,2.7,6,6S83.8,181.3,80.5,181.3z"/>
	</g>
</g>
<g>
	<path class="st0" d="M144.8,197.1c-25.8,0-46.8-21-46.8-46.8s21-46.8,46.8-46.8s46.8,21,46.8,46.8S170.6,197.1,144.8,197.1z
		 M144.8,115.5c-19.2,0-34.8,15.6-34.8,34.8c0,19.2,15.6,34.8,34.8,34.8c19.2,0,34.8-15.6,34.8-34.8
		C179.6,131.1,164,115.5,144.8,115.5z"/>
</g>
<g>
	<path class="st0" d="M201.3,213.9c-1.5,0-3.1-0.6-4.2-1.8l-25.7-25.7c-2.3-2.3-2.3-6.1,0-8.5c2.3-2.3,6.1-2.3,8.5,0l25.7,25.7
		c2.3,2.3,2.3,6.1,0,8.5C204.4,213.4,202.8,213.9,201.3,213.9z"/>
</g>
</svg>
